PathFileType	4	(X/Y/Z)	C:\Users\dbl\Desktop\20210112\20210112\bx_n_5_502.trc
DataRate	CameraRate	NumFrames	NumMarkers	Units	OrigDataRate	OrigDataStartFrame	OrigNumFrames
50.00	50.00	       6	43	mm	50.00	306	       489
Frame#	Time	Top.Head			R.Acromium			L.Acromium			Sternum			R.ASIS			L.ASIS			V.Sacral			R.Thigh.Upper			R.Thigh.Front			R.Thigh.Rear			R.Knee.Lat			R.Knee.Med			R.Shank.Upper			R.Shank.Front			R.Shank.Rear			R.Ankle.Lat			R.Midfoot.Lat			R.Toe.Lat			R.Toe.Tip			R.Toe.Med			R.Ankle.Med			R.Midfoot.Sup			R.Heel			L.Thigh.Upper			L.Thigh.Front			L.Thigh.Rear			L.Knee.Lat			L.Knee.Med			L.Shank.Upper			L.Shank.Front			L.Shank.Rear			L.Ankle.Lat			L.Midfoot.Lat			L.Toe.Lat			L.Toe.Tip			L.Toe.Med			L.Ankle.Med			L.Midfoot.Sup			L.Heel			origin1 front left			origin2 front right			origin 3 back right			origin 4 back leftt			
		X1	Y1	Z1	X2	Y2	Z2	X3	Y3	Z3	X4	Y4	Z4	X5	Y5	Z5	X6	Y6	Z6	X7	Y7	Z7	X8	Y8	Z8	X9	Y9	Z9	X10	Y10	Z10	X11	Y11	Z11	X12	Y12	Z12	X13	Y13	Z13	X14	Y14	Z14	X15	Y15	Z15	X16	Y16	Z16	X17	Y17	Z17	X18	Y18	Z18	X19	Y19	Z19	X20	Y20	Z20	X21	Y21	Z21	X22	Y22	Z22	X23	Y23	Z23	X24	Y24	Z24	X25	Y25	Z25	X26	Y26	Z26	X27	Y27	Z27	X28	Y28	Z28	X29	Y29	Z29	X30	Y30	Z30	X31	Y31	Z31	X32	Y32	Z32	X33	Y33	Z33	X34	Y34	Z34	X35	Y35	Z35	X36	Y36	Z36	X37	Y37	Z37	X38	Y38	Z38	X39	Y39	Z39	X40	Y40	Z40	X41	Y41	Z41	X42	Y42	Z42	X43	Y43	Z43	

306	6.100	-252.46262	129.63506	1583.51392	-451.92844	-59.69422	1361.67322	-468.08173	282.77826	1364.55542	-532.81805	103.84828	1169.96497	-736.20691	-6.17466	1016.12335	-740.37048	239.27550	1037.20276	-920.14001	94.78595	1086.53601	-807.17877	-74.65578	867.40387	-721.10754	-7.03406	807.36926	-806.53192	-65.62119	751.00421	-799.60089	-38.95615	610.98932	-781.54065	70.38544	568.67865	-797.83771	-37.06690	563.27356	-740.37482	13.62968	525.78339	-822.23560	-51.84982	476.75842	-762.58527	-24.91487	203.35503	-648.25610	-68.46155	161.03574	-605.22852	-73.09008	157.66980	-549.40350	-22.34307	162.56802	-600.88367	28.41163	167.02084	-727.79388	64.26534	218.17053	-675.99060	51.30083	161.90610	-795.37683	33.82268	172.94287	-833.45618	286.04855	867.93689	-726.98047	222.56435	794.13855	-816.45587	279.11108	734.98718	-827.55048	254.91199	631.25031	-779.71130	147.07887	571.42175	-816.54974	250.72037	566.67511	-754.84827	209.50256	537.31049	-840.46790	262.48425	487.77805	-773.27795	231.34222	201.62978	-660.63837	299.02090	156.09241	-623.75946	306.89948	158.32762	-557.60522	253.99059	163.88545	-594.67719	219.10379	174.07855	-720.57727	158.81638	221.79242	-677.28351	175.28357	162.34175	-799.42822	182.55682	181.55484	-528.00446	304.21774	146.48898	-518.01288	-72.85194	143.12289	-875.79224	-78.53784	141.15889	-882.55872	296.13596	144.77007	
307	6.120	-247.90997	130.30705	1574.46240	-447.72531	-58.79392	1354.13782	-463.93347	282.84515	1357.00073	-532.65540	104.05530	1163.95593	-738.94360	-5.76208	1014.79889	-742.55896	239.29448	1035.76086	-922.86566	95.15147	1087.26917	-809.84760	-74.43974	867.03180	-723.65228	-6.81915	807.14673	-808.93805	-65.36929	750.52142	-801.34039	-38.88432	610.78497	-783.25989	70.42233	568.39728	-799.41614	-37.03738	563.02863	-741.85297	13.73577	525.76404	-823.41931	-51.87860	476.37912	-762.67126	-25.00298	203.25882	-648.26141	-68.46710	161.04166	-605.21539	-73.06978	157.56705	-549.41315	-22.31856	162.58481	-600.88251	28.42943	167.01318	-727.96429	64.17474	218.19995	-676.00732	51.29374	161.94580	-795.38391	33.74371	172.93811	-835.88049	286.36978	867.59802	-729.29041	222.83578	793.81012	-818.51764	279.37210	734.61774	-829.26044	255.20493	630.85181	-781.25269	147.35878	571.33167	-818.02557	250.87685	566.38116	-756.23743	209.66335	537.20294	-841.63971	262.69107	487.33246	-773.35315	231.48943	201.59840	-660.62604	299.03015	156.08360	-623.76190	306.96210	158.27426	-557.60107	253.96808	163.90504	-594.70215	219.09357	174.04521	-720.71130	158.85007	221.94348	-677.39545	175.37262	162.37128	-799.48248	182.61732	181.50664	-528.01215	304.22830	146.51820	-518.05255	-72.89176	143.13989	-875.75330	-78.55340	141.12886	-882.56067	296.12842	144.77248	
308	6.140	-243.53326	130.85831	1565.56641	-443.69583	-57.93603	1346.73169	-459.91306	282.89142	1349.54846	-532.25342	104.25886	1158.16089	-741.56555	-5.33786	1013.48364	-744.63269	239.32719	1034.33118	-926.27679	94.70920	1088.12415	-812.40106	-74.28352	866.70032	-726.13873	-6.57237	806.90961	-811.34619	-65.14695	750.07916	-803.00592	-38.83160	610.58356	-784.92542	70.48804	568.10730	-800.95306	-36.98875	562.78198	-743.29248	13.88041	525.75958	-824.58887	-51.88223	476.01517	-762.74060	-25.09632	203.20255	-648.26459	-68.47695	161.03625	-605.21088	-73.03879	157.45877	-549.45404	-22.30207	162.58835	-600.88403	28.45027	167.00421	-728.11432	64.14740	218.31551	-676.02350	51.26972	161.96802	-795.38617	33.64674	172.89322	-838.19958	286.74976	867.30438	-731.40088	223.18018	793.60236	-820.52539	279.65063	734.24182	-830.89258	255.51917	630.44025	-782.68695	147.57751	571.24750	-819.41235	251.00034	566.09369	-757.53424	209.82291	537.11530	-842.73761	262.87225	486.91495	-773.41071	231.59549	201.56985	-660.59747	299.03140	156.06738	-623.75159	307.00043	158.20703	-557.60626	253.94609	163.90936	-594.72308	219.09294	174.00972	-720.83734	158.85103	222.08524	-677.47906	175.41722	162.39215	-799.50671	182.65901	181.43742	-528.01074	304.23447	146.54027	-518.08606	-72.94393	143.16382	-875.73273	-78.57632	141.11397	-882.57208	296.12726	144.77742	
309	6.160	-239.31946	131.29811	1556.83704	-439.82440	-57.11027	1339.48425	-456.00317	282.92297	1342.18994	-531.62378	104.44630	1152.56250	-744.05688	-4.94749	1012.17706	-746.63623	239.46376	1033.01941	-929.55908	93.99187	1088.91492	-814.80676	-74.19102	866.43536	-728.54480	-6.29481	806.69189	-813.66003	-64.98891	749.72229	-804.56134	-38.78427	610.37952	-786.50690	70.58561	567.83282	-802.42889	-36.92016	562.53961	-744.66675	14.05302	525.76111	-825.71033	-51.86494	475.68027	-762.79028	-25.19245	203.18233	-648.25348	-68.48450	161.02309	-605.20557	-72.99646	157.37123	-549.51367	-22.28575	162.58308	-600.89520	28.47061	166.98924	-728.26556	64.16245	218.49428	-676.04169	51.23294	161.96820	-795.39178	33.53453	172.81946	-840.43994	287.18024	867.04797	-733.37585	223.54420	793.51099	-822.48157	279.97784	733.86926	-832.44543	255.83575	630.03418	-784.03943	147.72900	571.14618	-820.71759	251.12083	565.80206	-758.73853	209.99445	537.05280	-843.78296	263.03433	486.53186	-773.45081	231.66002	201.54959	-660.55927	299.02893	156.03412	-623.73212	307.01004	158.13469	-557.62653	253.92429	163.88960	-594.75366	219.11377	173.97586	-720.96741	158.82465	222.20961	-677.53204	175.42116	162.41301	-799.50983	182.68820	181.37506	-528.00458	304.24020	146.55087	-518.10638	-72.99220	143.19124	-875.74066	-78.59591	141.11345	-882.58942	296.13327	144.78049	
310	6.180	-235.27036	131.64244	1548.26074	-436.07608	-56.31433	1332.40405	-452.17236	282.92358	1334.90063	-530.84155	104.60374	1147.12476	-746.41003	-4.62797	1010.87793	-748.57880	239.72198	1031.85034	-932.22583	93.39672	1089.54504	-817.06720	-74.11598	866.22791	-730.82947	-5.98568	806.50513	-815.78937	-64.87921	749.45898	-806.00201	-38.71861	610.15942	-787.99231	70.70724	567.59741	-803.83441	-36.83981	562.30536	-745.96234	14.23081	525.75226	-826.76428	-51.84158	475.38092	-762.82379	-25.28615	203.18060	-648.22009	-68.48633	161.00607	-605.18695	-72.94833	157.31133	-549.56952	-22.26310	162.57144	-600.91296	28.48355	166.97057	-728.41309	64.20118	218.69893	-676.06073	51.19205	161.95511	-795.40454	33.41916	172.74081	-842.62158	287.63712	866.81824	-735.26416	223.88646	793.50458	-824.38666	280.35107	733.51050	-833.91931	256.15063	629.65619	-785.34167	147.85472	571.00531	-821.95728	251.27020	565.50500	-759.87183	210.19884	537.02118	-844.79108	263.19949	486.17776	-773.48810	231.70192	201.54356	-660.52008	299.02600	155.98486	-623.70502	306.99973	158.06821	-557.67670	253.90257	163.84052	-594.79883	219.15457	173.94728	-721.10138	158.79533	222.32120	-677.56708	175.42097	162.44717	-799.50934	182.72604	181.34906	-527.99799	304.25137	146.55562	-518.10962	-73.01725	143.21712	-875.77252	-78.60704	141.12059	-882.60773	296.14120	144.77684	
311	6.200	-231.39005	131.91202	1539.80762	-432.41071	-55.55095	1325.47644	-448.39700	282.87061	1327.65942	-530.00079	104.72310	1141.81042	-748.62329	-4.40039	1009.58759	-750.43665	240.04950	1030.77441	-934.18372	93.10905	1089.99854	-819.23730	-73.97829	866.02045	-732.96436	-5.65676	806.33533	-817.71484	-64.77068	749.25397	-807.36621	-38.61930	609.91315	-789.39734	70.83755	567.40137	-805.17737	-36.74614	562.06531	-747.18976	14.39316	525.72131	-827.76477	-51.82637	475.11548	-762.84705	-25.37082	203.17833	-648.16681	-68.48506	160.98967	-605.15204	-72.89883	157.27008	-549.60083	-22.23286	162.55006	-600.92676	28.48422	166.95424	-728.53534	64.24770	218.88568	-676.07343	51.15960	161.94890	-795.42010	33.32848	172.68456	-844.74622	288.08929	866.59808	-737.09058	224.18884	793.53351	-826.22986	280.75479	733.16498	-835.31665	256.46640	629.31854	-786.60986	148.00728	570.81805	-823.14240	251.46631	565.21277	-760.95886	210.43964	537.02545	-845.75354	263.39117	485.84045	-773.53735	231.74326	201.55440	-660.48608	299.02234	155.93138	-623.66809	306.98483	158.02122	-557.76440	253.88316	163.76793	-594.85419	219.19801	173.92850	-721.22253	158.79539	222.43159	-677.59668	175.46335	162.50560	-799.52295	182.79510	181.37360	-527.99365	304.26807	146.56134	-518.09747	-73.01132	143.23553	-875.81213	-78.61199	141.13042	-882.62231	296.14453	144.76535	
